# xmcd
#
# Track frame offsets: 
#        150
#        19407
#        38738
#        57257
#        75300
#        90788
#        108149
#        127276
#        146408
#
# Disc length: 2128 seconds
#
# Revision: 0
# Processed by: cddbd v1.5.2PL0 Copyright (c) Steve Scherf et al.
# Submitted via: ExactAudioCopy v0.99pb5
#
DISCID=68084e09
DTITLE=Left Of Centre - Road To Nowhere
DYEAR=2004
DGENRE=Blues
TTITLE0=Somebody To Love
TTITLE1=Road To Nowhere
TTITLE2=Life Goes On
TTITLE3=Running
TTITLE4=Albuquerque
TTITLE5=The Relationship Song
TTITLE6=Guilt Trip
TTITLE7=Better Place
TTITLE8=Folsom Prison Blues
EXTD=
EXTT0=
EXTT1=
EXTT2=
EXTT3=
EXTT4=
EXTT5=
EXTT6=
EXTT7=
EXTT8=
PLAYORDER=
